<?xml version="1.0" encoding="iso-8859-1"?>
<!-- Generator: Adobe Illustrator 28.5.0, SVG Export Plug-In . SVG Version: 9.03 Build 54727)  -->
<svg version="1.1" id="Layer_1" xmlns="http://www.w3.org/2000/svg" xmlns:xlink="http://www.w3.org/1999/xlink" x="0px" y="0px"
	 viewBox="0 0 200.818 36.441" style="enable-background:new 0 0 200.818 36.441;" xml:space="preserve">
<g>
	<polygon style="fill:#FFFFFF;" points="38.104,0 33.448,23.328 28.222,0 19.147,0 13.921,23.328 9.265,0 0,0 7.554,35.634 
		18.339,35.634 23.613,11.973 28.887,35.634 39.435,35.634 46.941,0 	"/>
	<path style="fill:#FFFFFF;" d="M59.698,6.557c-5.749,0-9.787,1.948-11.26,3.326v7.602c1.71-1.52,5.321-3.753,10.072-3.753
		c2.946,0,4.038,0.808,4.038,2.471c0,1.425-1.52,1.995-5.749,2.898c-6.414,1.33-10.12,3.658-10.12,9.217
		c0,5.131,3.373,8.124,8.267,8.124c4.1,0,6.546-1.904,7.887-4.461v3.653h8.837V18.149C71.671,10.12,67.49,6.557,59.698,6.557z
		 M58.463,30.692c-2.09,0-3.231-1.283-3.231-3.041c0-2.281,1.805-3.183,4.086-3.991c1.189-0.446,2.378-0.911,3.183-1.615v3.943
		C62.501,28.982,60.934,30.692,58.463,30.692z"/>
	<rect x="76.09" style="fill:#FFFFFF;" width="9.17" height="35.634"/>
	<path style="fill:#FFFFFF;" d="M123.174,6.652c-4.456,0-7.331,2.683-8.833,6.252c-0.803-3.822-3.478-6.252-7.226-6.252
		c-4.243,0-7.009,2.475-8.41,5.953V7.459h-9.027v28.174h9.17V20.002c0-3.848,1.283-6.034,4.038-6.034
		c2.233,0,2.993,1.52,2.993,3.896v17.769h9.17V20.002c0-3.848,1.283-6.034,4.038-6.034c2.233,0,2.993,1.52,2.993,3.896v17.769h9.17
		V16.582C131.251,10.643,128.448,6.652,123.174,6.652z"/>
	<path style="fill:#FFFFFF;" d="M147.31,6.557c-5.749,0-9.787,1.948-11.26,3.326v7.602c1.71-1.52,5.321-3.753,10.072-3.753
		c2.946,0,4.038,0.808,4.038,2.471c0,1.425-1.52,1.995-5.749,2.898c-6.414,1.33-10.12,3.658-10.12,9.217
		c0,5.131,3.373,8.124,8.267,8.124c4.1,0,6.546-1.904,7.887-4.461v3.653h8.837V18.149C159.283,10.12,155.102,6.557,147.31,6.557z
		 M146.074,30.692c-2.091,0-3.231-1.283-3.231-3.041c0-2.281,1.805-3.183,4.086-3.991c1.189-0.446,2.378-0.911,3.183-1.615v3.943
		C150.113,28.982,148.545,30.692,146.074,30.692z"/>
	<g>
		<path style="fill:#FFFFFF;" d="M172.728,15.379v-7.92h-9.027v28.174h9.217V23.661c0-5.511,3.611-6.984,6.889-6.984
			c1.093,0,2.138,0.143,2.613,0.285V7.269C177.062,7.021,173.931,10.299,172.728,15.379z"/>
		<path style="fill:#FFFFFF;" d="M200.818,14.586V7.459h-5.796V1.995h-9.17v24.231c0,6.794,3.801,9.977,9.93,9.977
			c2.851,0,4.371-0.57,5.036-0.998v-7.079c-0.523,0.38-1.378,0.665-2.471,0.665c-1.995,0.048-3.326-0.855-3.326-3.848V14.586
			H200.818z"/>
	</g>
</g>
</svg>
